ffmpeg started on 2025-06-20 at 16:46:35
Report written to "D:\Convert\FFMetrics\reports\psnr_report-6.txt"
Log level: 32
Command line:
ffmpeg -hide_banner -nostdin -i "G:\\\xc0\xed\xe8\xec\xe5\\[\xd2\xee\xef]\\\xc2\xee\xeb\xf7\xe8\xf6\xe0 \xe8 \xef\xf0\xff\xed\xee\xf1\xf2\xe8\\\xd2\xee\xf0\xe3\xee\xe2\xe5\xf6 \xe2\xf1\xf2\xf0\xe5\xf7\xe0\xe5\xf2 \xec\xf3\xe4\xf0\xf3\xfe \xe2\xee\xeb\xf7\xe8\xf6\xf3\\DC_Ookami_to_Koushinryou_Merchant_Meets_the_Wise_Wolf_04_Telegram_HEVC.mkv" -i "G:\\\xc0\xed\xe8\xec\xe5\\[\xd2\xee\xef]\\\xc2\xee\xeb\xf7\xe8\xf6\xe0 \xe8 \xef\xf0\xff\xed\xee\xf1\xf2\xe8\\\xd2\xee\xf0\xe3\xee\xe2\xe5\xf6 \xe2\xf1\xf2\xf0\xe5\xf7\xe0\xe5\xf2 \xec\xf3\xe4\xf0\xf3\xfe \xe2\xee\xeb\xf7\xe8\xf6\xf3\\DC_Ookami_to_Koushinryou_Merchant_Meets_the_Wise_Wolf_04_Telegram.mp4" -lavfi "[0:v]settb=AVTB,setpts=PTS-STARTPTS,format=pix_fmts=yuv420p10,fps=24000/1001,scale=1920:1080:flags=bicubic[main];[1:v]settb=AVTB,setpts=PTS-STARTPTS,format=pix_fmts=yuv420p,fps=24000/1001,scale=1920:1080:flags=bicubic[ref];[main][ref]psnr=eof_action=endall:stats_file='D\\:/Convert/FFMetrics/logs/psnr_logfile-6.txt'" -f null -
Input #0, matroska,webm, from 'G:\Аниме\[Топ]\Волчица и пряности\Торговец встречает мудрую волчицу\DC_Ookami_to_Koushinryou_Merchant_Meets_the_Wise_Wolf_04_Telegram_HEVC.mkv':
  Metadata:
    COMPATIBLE_BRANDS: isomiso2avc1mp41
    MAJOR_BRAND     : isom
    MINOR_VERSION   : 512
    ENCODER         : Lavf61.7.100
  Duration: 00:23:57.70, start: -0.021000, bitrate: 688 kb/s
  Stream #0:0: Video: hevc (Main 10), yuv420p10le(tv, bt709, progressive), 1920x1080 [SAR 1:1 DAR 16:9], 23.98 fps, 23.98 tbr, 1k tbn (default)
      Metadata:
        HANDLER_NAME    : VideoHandler
        VENDOR_ID       : [0][0][0][0]
        ENCODER         : Lavc61.19.100 libx265
        BPS             : 492266
        DURATION        : 00:23:56.601708333
        NUMBER_OF_FRAMES: 34444
        NUMBER_OF_BYTES : 88398739
        _STATISTICS_WRITING_APP: mkvpropedit v66.0.0 ('Josie') 64-bit
        _STATISTICS_WRITING_DATE_UTC: 2025-06-20 09:34:13
        _STATISTICS_TAGS: BPS DURATION NUMBER_OF_FRAMES NUMBER_OF_BYTES
  Stream #0:1: Audio: aac (LC), 48000 Hz, stereo, fltp (default)
      Metadata:
        HANDLER_NAME    : SoundHandler
        VENDOR_ID       : [0][0][0][0]
        ENCODER         : Lavc61.19.100 aac
        BPS             : 192796
        DURATION        : 00:23:57.696000000
        NUMBER_OF_FRAMES: 67393
        NUMBER_OF_BYTES : 34647908
        _STATISTICS_WRITING_APP: mkvpropedit v66.0.0 ('Josie') 64-bit
        _STATISTICS_WRITING_DATE_UTC: 2025-06-20 09:34:13
        _STATISTICS_TAGS: BPS DURATION NUMBER_OF_FRAMES NUMBER_OF_BYTES
Input #1, mov,mp4,m4a,3gp,3g2,mj2, from 'G:\Аниме\[Топ]\Волчица и пряности\Торговец встречает мудрую волчицу\DC_Ookami_to_Koushinryou_Merchant_Meets_the_Wise_Wolf_04_Telegram.mp4':
  Metadata:
    major_brand     : isom
    minor_version   : 512
    compatible_brands: isomiso2avc1mp41
    encoder         : Lavf60.16.100
  Duration: 00:23:57.67, start: 0.000000, bitrate: 3263 kb/s
  Stream #1:0[0x1](und): Video: h264 (High) (avc1 / 0x31637661), yuv420p(tv, bt709, progressive), 1920x1080 [SAR 1:1 DAR 16:9], 3118 kb/s, 23.98 fps, 23.98 tbr, 24k tbn (default)
      Metadata:
        handler_name    : VideoHandler
        vendor_id       : [0][0][0][0]
        encoder         : Lavc60.31.102 h264_qsv
  Stream #1:1[0x2](und): Audio: aac (HE-AACv2) (mp4a / 0x6134706D), 48000 Hz, stereo, fltp, 144 kb/s (default)
      Metadata:
        handler_name    : SoundHandler
        vendor_id       : [0][0][0][0]
Stream mapping:
  Stream #0:0 (hevc) -> settb:default
  Stream #1:0 (h264) -> settb:default
  psnr:default -> Stream #0:0 (wrapped_avframe)
  Stream #0:1 -> #0:1 (aac (native) -> pcm_s16le (native))
Output #0, null, to 'pipe:':
  Metadata:
    COMPATIBLE_BRANDS: isomiso2avc1mp41
    MAJOR_BRAND     : isom
    MINOR_VERSION   : 512
    encoder         : Lavf61.7.100
  Stream #0:0: Video: wrapped_avframe, yuv420p10le(tv, bt709, progressive), 1920x1080 [SAR 1:1 DAR 16:9], q=2-31, 200 kb/s, 23.98 fps, 23.98 tbn
      Metadata:
        encoder         : Lavc61.19.100 wrapped_avframe
  Stream #0:1: Audio: pcm_s16le, 48000 Hz, stereo, s16, 1536 kb/s (default)
      Metadata:
        HANDLER_NAME    : SoundHandler
        VENDOR_ID       : [0][0][0][0]
        _STATISTICS_TAGS: BPS DURATION NUMBER_OF_FRAMES NUMBER_OF_BYTES
        BPS             : 192796
        DURATION        : 00:23:57.696000000
        NUMBER_OF_FRAMES: 67393
        NUMBER_OF_BYTES : 34647908
        _STATISTICS_WRITING_APP: mkvpropedit v66.0.0 ('Josie') 64-bit
        _STATISTICS_WRITING_DATE_UTC: 2025-06-20 09:34:13
        encoder         : Lavc61.19.100 pcm_s16le
frame=  190 fps=0.0 q=-0.0 size=N/A time=00:00:07.92 bitrate=N/A speed=15.5x    frame=  483 fps=464 q=-0.0 size=N/A time=00:00:20.14 bitrate=N/A speed=19.4x    frame=  770 fps=497 q=-0.0 size=N/A time=00:00:32.11 bitrate=N/A speed=20.7x    frame= 1032 fps=501 q=-0.0 size=N/A time=00:00:43.04 bitrate=N/A speed=20.9x    frame= 1276 fps=493 q=-0.0 size=N/A time=00:00:53.21 bitrate=N/A speed=20.6x    frame= 1486 fps=479 q=-0.0 size=N/A time=00:01:01.97 bitrate=N/A speed=  20x    frame= 1690 fps=468 q=-0.0 size=N/A time=00:01:10.48 bitrate=N/A speed=19.5x    frame= 1881 fps=455 q=-0.0 size=N/A time=00:01:18.45 bitrate=N/A speed=  19x    frame= 2092 fps=450 q=-0.0 size=N/A time=00:01:27.25 bitrate=N/A speed=18.8x    frame= 2296 fps=445 q=-0.0 size=N/A time=00:01:35.76 bitrate=N/A speed=18.6x    frame= 2525 fps=444 q=-0.0 size=N/A time=00:01:45.31 bitrate=N/A speed=18.5x    frame= 2759 fps=446 q=-0.0 size=N/A time=00:01:55.07 bitrate=N/A speed=18.6x    frame= 2976 fps=444 q=-0.0 size=N/A time=00:02:04.12 bitrate=N/A speed=18.5x    frame= 3258 fps=451 q=-0.0 size=N/A time=00:02:15.88 bitrate=N/A speed=18.8x    frame= 3526 fps=456 q=-0.0 size=N/A time=00:02:27.06 bitrate=N/A speed=  19x    frame= 3811 fps=461 q=-0.0 size=N/A time=00:02:38.95 bitrate=N/A speed=19.2x    frame= 4081 fps=465 q=-0.0 size=N/A time=00:02:50.21 bitrate=N/A speed=19.4x    frame= 4361 fps=470 q=-0.0 size=N/A time=00:03:01.89 bitrate=N/A speed=19.6x    frame= 4654 fps=475 q=-0.0 size=N/A time=00:03:14.11 bitrate=N/A speed=19.8x    frame= 4939 fps=479 q=-0.0 size=N/A time=00:03:25.99 bitrate=N/A speed=  20x    frame= 5230 fps=483 q=-0.0 size=N/A time=00:03:38.13 bitrate=N/A speed=20.1x    frame= 5515 fps=486 q=-0.0 size=N/A time=00:03:50.02 bitrate=N/A speed=20.3x    frame= 5787 fps=488 q=-0.0 size=N/A time=00:04:01.36 bitrate=N/A speed=20.4x    frame= 6072 fps=490 q=-0.0 size=N/A time=00:04:13.25 bitrate=N/A speed=20.5x    frame= 6351 fps=493 q=-0.0 size=N/A time=00:04:24.88 bitrate=N/A speed=20.5x    frame= 6640 fps=495 q=-0.0 size=N/A time=00:04:36.94 bitrate=N/A speed=20.7x    frame= 6930 fps=497 q=-0.0 size=N/A time=00:04:49.03 bitrate=N/A speed=20.7x    frame= 7206 fps=499 q=-0.0 size=N/A time=00:05:00.55 bitrate=N/A speed=20.8x    frame= 7495 fps=501 q=-0.0 size=N/A time=00:05:12.60 bitrate=N/A speed=20.9x    frame= 7759 fps=501 q=-0.0 size=N/A time=00:05:23.61 bitrate=N/A speed=20.9x    frame= 8003 fps=501 q=-0.0 size=N/A time=00:05:33.79 bitrate=N/A speed=20.9x    frame= 8300 fps=503 q=-0.0 size=N/A time=00:05:46.17 bitrate=N/A speed=  21x    frame= 8588 fps=505 q=-0.0 size=N/A time=00:05:58.19 bitrate=N/A speed=  21x    frame= 8872 fps=506 q=-0.0 size=N/A time=00:06:10.03 bitrate=N/A speed=21.1x    frame= 9122 fps=505 q=-0.0 size=N/A time=00:06:20.46 bitrate=N/A speed=21.1x    frame= 9312 fps=502 q=-0.0 size=N/A time=00:06:28.38 bitrate=N/A speed=20.9x    frame= 9519 fps=499 q=-0.0 size=N/A time=00:06:37.02 bitrate=N/A speed=20.8x    frame= 9780 fps=499 q=-0.0 size=N/A time=00:06:47.90 bitrate=N/A speed=20.8x    frame=10066 fps=500 q=-0.0 size=N/A time=00:06:59.83 bitrate=N/A speed=20.9x    frame=10319 fps=500 q=-0.0 size=N/A time=00:07:10.38 bitrate=N/A speed=20.9x    frame=10606 fps=501 q=-0.0 size=N/A time=00:07:22.35 bitrate=N/A speed=20.9x    frame=10865 fps=502 q=-0.0 size=N/A time=00:07:33.16 bitrate=N/A speed=20.9x    frame=11159 fps=503 q=-0.0 size=N/A time=00:07:45.42 bitrate=N/A speed=  21x    frame=11442 fps=504 q=-0.0 size=N/A time=00:07:57.22 bitrate=N/A speed=  21x    frame=11740 fps=506 q=-0.0 size=N/A time=00:08:09.65 bitrate=N/A speed=21.1x    frame=12005 fps=506 q=-0.0 size=N/A time=00:08:20.70 bitrate=N/A speed=21.1x    frame=12285 fps=507 q=-0.0 size=N/A time=00:08:32.38 bitrate=N/A speed=21.1x    frame=12579 fps=508 q=-0.0 size=N/A time=00:08:44.64 bitrate=N/A speed=21.2x    frame=12856 fps=509 q=-0.0 size=N/A time=00:08:56.20 bitrate=N/A speed=21.2x    frame=13139 fps=509 q=-0.0 size=N/A time=00:09:08.00 bitrate=N/A speed=21.2x    frame=13427 fps=511 q=-0.0 size=N/A time=00:09:20.01 bitrate=N/A speed=21.3x    frame=13700 fps=511 q=-0.0 size=N/A time=00:09:31.40 bitrate=N/A speed=21.3x    frame=13988 fps=512 q=-0.0 size=N/A time=00:09:43.41 bitrate=N/A speed=21.3x    frame=14271 fps=512 q=-0.0 size=N/A time=00:09:55.21 bitrate=N/A speed=21.4x    frame=14533 fps=512 q=-0.0 size=N/A time=00:10:06.14 bitrate=N/A speed=21.4x    frame=14816 fps=513 q=-0.0 size=N/A time=00:10:17.95 bitrate=N/A speed=21.4x    frame=15091 fps=513 q=-0.0 size=N/A time=00:10:29.42 bitrate=N/A speed=21.4x    frame=15364 fps=514 q=-0.0 size=N/A time=00:10:40.80 bitrate=N/A speed=21.4x    frame=15639 fps=514 q=-0.0 size=N/A time=00:10:52.27 bitrate=N/A speed=21.4x    frame=15927 fps=515 q=-0.0 size=N/A time=00:11:04.28 bitrate=N/A speed=21.5x    frame=16208 fps=515 q=-0.0 size=N/A time=00:11:16.00 bitrate=N/A speed=21.5x    frame=16485 fps=516 q=-0.0 size=N/A time=00:11:27.56 bitrate=N/A speed=21.5x    frame=16768 fps=516 q=-0.0 size=N/A time=00:11:39.36 bitrate=N/A speed=21.5x    frame=17065 fps=517 q=-0.0 size=N/A time=00:11:51.75 bitrate=N/A speed=21.6x    frame=17344 fps=517 q=-0.0 size=N/A time=00:12:03.38 bitrate=N/A speed=21.6x    frame=17617 fps=518 q=-0.0 size=N/A time=00:12:14.77 bitrate=N/A speed=21.6x    frame=17897 fps=518 q=-0.0 size=N/A time=00:12:26.45 bitrate=N/A speed=21.6x    frame=18157 fps=518 q=-0.0 size=N/A time=00:12:37.29 bitrate=N/A speed=21.6x    frame=18418 fps=518 q=-0.0 size=N/A time=00:12:48.18 bitrate=N/A speed=21.6x    frame=18695 fps=518 q=-0.0 size=N/A time=00:12:59.73 bitrate=N/A speed=21.6x    frame=18943 fps=517 q=-0.0 size=N/A time=00:13:10.08 bitrate=N/A speed=21.6x    frame=19203 fps=517 q=-0.0 size=N/A time=00:13:20.92 bitrate=N/A speed=21.6x    frame=19431 fps=516 q=-0.0 size=N/A time=00:13:30.43 bitrate=N/A speed=21.5x    frame=19675 fps=516 q=-0.0 size=N/A time=00:13:40.61 bitrate=N/A speed=21.5x    frame=19935 fps=516 q=-0.0 size=N/A time=00:13:51.45 bitrate=N/A speed=21.5x    frame=20187 fps=515 q=-0.0 size=N/A time=00:14:01.96 bitrate=N/A speed=21.5x    frame=20440 fps=515 q=-0.0 size=N/A time=00:14:12.51 bitrate=N/A speed=21.5x    frame=20692 fps=514 q=-0.0 size=N/A time=00:14:23.02 bitrate=N/A speed=21.5x    frame=20976 fps=515 q=-0.0 size=N/A time=00:14:34.87 bitrate=N/A speed=21.5x    frame=21257 fps=515 q=-0.0 size=N/A time=00:14:46.59 bitrate=N/A speed=21.5x    frame=21548 fps=516 q=-0.0 size=N/A time=00:14:58.73 bitrate=N/A speed=21.5x    frame=21845 fps=517 q=-0.0 size=N/A time=00:15:11.11 bitrate=N/A speed=21.5x    frame=22136 fps=517 q=-0.0 size=N/A time=00:15:23.25 bitrate=N/A speed=21.6x    frame=22408 fps=517 q=-0.0 size=N/A time=00:15:34.60 bitrate=N/A speed=21.6x    frame=22689 fps=518 q=-0.0 size=N/A time=00:15:46.32 bitrate=N/A speed=21.6x    frame=22970 fps=518 q=-0.0 size=N/A time=00:15:58.04 bitrate=N/A speed=21.6x    frame=23248 fps=518 q=-0.0 size=N/A time=00:16:09.63 bitrate=N/A speed=21.6x    frame=23507 fps=518 q=-0.0 size=N/A time=00:16:20.43 bitrate=N/A speed=21.6x    frame=23792 fps=518 q=-0.0 size=N/A time=00:16:32.32 bitrate=N/A speed=21.6x    frame=24060 fps=518 q=-0.0 size=N/A time=00:16:43.50 bitrate=N/A speed=21.6x    frame=24328 fps=519 q=-0.0 size=N/A time=00:16:54.68 bitrate=N/A speed=21.6x    frame=24604 fps=519 q=-0.0 size=N/A time=00:17:06.19 bitrate=N/A speed=21.6x    frame=24877 fps=519 q=-0.0 size=N/A time=00:17:17.57 bitrate=N/A speed=21.6x    frame=25159 fps=519 q=-0.0 size=N/A time=00:17:29.33 bitrate=N/A speed=21.6x    frame=25439 fps=519 q=-0.0 size=N/A time=00:17:41.01 bitrate=N/A speed=21.7x    frame=25735 fps=520 q=-0.0 size=N/A time=00:17:53.36 bitrate=N/A speed=21.7x    frame=26024 fps=520 q=-0.0 size=N/A time=00:18:05.41 bitrate=N/A speed=21.7x    frame=26314 fps=521 q=-0.0 size=N/A time=00:18:17.51 bitrate=N/A speed=21.7x    frame=26584 fps=521 q=-0.0 size=N/A time=00:18:28.77 bitrate=N/A speed=21.7x    frame=26850 fps=521 q=-0.0 size=N/A time=00:18:39.86 bitrate=N/A speed=21.7x    frame=27087 fps=520 q=-0.0 size=N/A time=00:18:49.75 bitrate=N/A speed=21.7x    frame=27364 fps=520 q=-0.0 size=N/A time=00:19:01.30 bitrate=N/A speed=21.7x    frame=27635 fps=520 q=-0.0 size=N/A time=00:19:12.60 bitrate=N/A speed=21.7x    frame=27900 fps=520 q=-0.0 size=N/A time=00:19:23.66 bitrate=N/A speed=21.7x    frame=28169 fps=520 q=-0.0 size=N/A time=00:19:34.88 bitrate=N/A speed=21.7x    frame=28424 fps=520 q=-0.0 size=N/A time=00:19:45.51 bitrate=N/A speed=21.7x    frame=28692 fps=520 q=-0.0 size=N/A time=00:19:56.69 bitrate=N/A speed=21.7x    frame=28986 fps=520 q=-0.0 size=N/A time=00:20:08.95 bitrate=N/A speed=21.7x    frame=29271 fps=521 q=-0.0 size=N/A time=00:20:20.84 bitrate=N/A speed=21.7x    frame=29570 fps=521 q=-0.0 size=N/A time=00:20:33.31 bitrate=N/A speed=21.7x    frame=29834 fps=521 q=-0.0 size=N/A time=00:20:44.32 bitrate=N/A speed=21.7x    frame=30092 fps=521 q=-0.0 size=N/A time=00:20:55.08 bitrate=N/A speed=21.7x    frame=30375 fps=521 q=-0.0 size=N/A time=00:21:06.89 bitrate=N/A speed=21.7x    frame=30667 fps=522 q=-0.0 size=N/A time=00:21:19.06 bitrate=N/A speed=21.8x    frame=30932 fps=522 q=-0.0 size=N/A time=00:21:30.12 bitrate=N/A speed=21.8x    frame=31221 fps=522 q=-0.0 size=N/A time=00:21:42.17 bitrate=N/A speed=21.8x    frame=31492 fps=522 q=-0.0 size=N/A time=00:21:53.47 bitrate=N/A speed=21.8x    frame=31608 fps=519 q=-0.0 size=N/A time=00:21:58.31 bitrate=N/A speed=21.7x    frame=31801 fps=518 q=-0.0 size=N/A time=00:22:06.36 bitrate=N/A speed=21.6x    frame=32010 fps=517 q=-0.0 size=N/A time=00:22:15.08 bitrate=N/A speed=21.6x    frame=32278 fps=517 q=-0.0 size=N/A time=00:22:26.26 bitrate=N/A speed=21.6x    frame=32546 fps=517 q=-0.0 size=N/A time=00:22:37.43 bitrate=N/A speed=21.6x    frame=32770 fps=517 q=-0.0 size=N/A time=00:22:46.78 bitrate=N/A speed=21.5x    frame=32994 fps=516 q=-0.0 size=N/A time=00:22:56.12 bitrate=N/A speed=21.5x    frame=33250 fps=516 q=-0.0 size=N/A time=00:23:06.80 bitrate=N/A speed=21.5x    frame=33418 fps=514 q=-0.0 size=N/A time=00:23:13.80 bitrate=N/A speed=21.4x    frame=33660 fps=514 q=-0.0 size=N/A time=00:23:23.90 bitrate=N/A speed=21.4x    frame=33913 fps=514 q=-0.0 size=N/A time=00:23:34.45 bitrate=N/A speed=21.4x    frame=34192 fps=514 q=-0.0 size=N/A time=00:23:46.09 bitrate=N/A speed=21.4x    [Parsed_psnr_10 @ 0000016d139d2140] PSNR y:50.431144 u:52.225953 v:52.791469 average:51.017517 min:40.947865 max:inf
[out#0/null @ 0000016d13185480] video:14800KiB audio:269572KiB subtitle:0KiB other streams:0KiB global headers:0KiB muxing overhead: unknown
frame=34444 fps=514 q=-0.0 Lsize=N/A time=00:23:56.60 bitrate=N/A speed=21.4x    
